<?xml version="1.0" standalone="no"?>
<!DOCTYPE svg PUBLIC "-//W3C//DTD SVG 20010904//EN"
 "http://www.w3.org/TR/2001/REC-SVG-20010904/DTD/svg10.dtd">
<svg version="1.0" xmlns="http://www.w3.org/2000/svg"
 width="333.000000pt" height="332.000000pt" viewBox="0 0 333.000000 332.000000"
 preserveAspectRatio="xMidYMid meet">

<g transform="translate(0.000000,332.000000) scale(0.100000,-0.100000)"
fill="#000000" stroke="none">
<path d="M0 1660 l0 -1660 1665 0 1665 0 0 1660 0 1660 -1665 0 -1665 0 0
-1660z m2807 817 c122 -34 209 -109 234 -200 18 -67 7 -165 -27 -227 -31 -56
-93 -117 -162 -158 -40 -23 -43 -28 -38 -55 3 -16 6 -63 6 -103 0 -72 1 -74
28 -80 56 -14 146 -67 194 -115 73 -73 101 -142 106 -261 7 -155 -41 -277
-141 -364 -134 -115 -318 -146 -662 -109 -77 8 -204 15 -282 15 -89 0 -143 4
-143 10 0 6 12 10 28 10 15 0 38 7 51 16 29 21 60 89 61 132 0 28 -3 32 -26
32 -73 0 -250 68 -324 124 -44 34 -45 29 -31 -105 16 -141 51 -199 121 -199
11 0 20 -4 20 -10 0 -6 -80 -10 -220 -10 -140 0 -220 4 -220 10 0 6 9 10 20
10 36 0 77 28 94 64 21 46 35 155 36 285 l0 103 -78 83 c-43 45 -107 121 -142
169 -35 47 -67 83 -71 78 -3 -4 -62 -159 -130 -344 -68 -186 -128 -336 -134
-334 -5 1 -82 157 -170 347 l-161 344 -71 6 c-87 8 -177 53 -230 113 l-35 41
5 -295 c4 -223 9 -313 22 -370 19 -85 54 -168 92 -218 27 -35 92 -71 130 -72
12 0 25 -4 28 -10 4 -7 -72 -10 -219 -10 -144 0 -226 4 -226 10 0 6 13 10 29
10 38 0 75 31 97 82 17 39 19 81 22 471 3 369 1 435 -12 475 -20 58 -21 177
-1 232 25 71 14 225 -21 292 -16 30 -61 58 -94 58 -11 0 -20 5 -20 10 0 6 51
10 134 10 l133 0 33 -72 c18 -40 34 -74 35 -76 2 -2 32 2 68 8 106 19 212 -11
292 -81 50 -44 153 -185 286 -391 62 -98 116 -174 120 -170 3 4 71 181 150
395 l144 387 142 0 c136 0 183 -10 110 -24 -44 -8 -74 -41 -95 -102 -14 -42
-16 -124 -20 -599 l-3 -550 64 -42 c100 -66 228 -113 306 -113 l31 0 0 603 c0
604 -4 687 -36 749 -16 30 -61 58 -94 58 -11 0 -20 5 -20 10 0 6 61 10 163 11
89 0 221 7 292 14 153 16 359 12 432 -8z"/>
<path d="M2440 2474 c-63 -5 -210 -35 -210 -43 0 -4 27 -13 59 -19 185 -38
383 -202 467 -386 23 -50 28 -55 42 -44 155 123 144 336 -22 433 -72 42 -217
67 -336 59z"/>
<path d="M2210 1725 l0 -686 38 7 c181 33 375 173 468 339 34 62 84 204 84
240 0 21 -89 36 -151 26 -30 -5 -100 -28 -157 -50 -56 -23 -117 -41 -136 -41
-77 0 -87 81 -17 148 22 21 117 78 221 132 101 52 188 103 194 113 9 14 3 33
-29 95 -56 108 -181 233 -290 289 -69 36 -179 73 -214 73 -8 0 -11 -191 -11
-685z"/>
<path d="M1391 2037 c-74 -199 -136 -366 -138 -372 -4 -14 140 -205 215 -285
l61 -65 1 543 c0 298 -1 542 -2 542 -2 0 -63 -163 -137 -363z"/>
<path d="M311 2262 l-1 -84 27 32 26 32 -26 51 -26 52 0 -83z"/>
<path d="M522 2309 c-18 -6 -32 -14 -30 -19 13 -36 543 -1140 547 -1140 3 0
48 114 99 252 l93 251 -108 169 c-138 215 -281 406 -328 437 -80 53 -191 73
-273 50z"/>
<path d="M336 2184 c-25 -37 -26 -43 -26 -192 0 -170 4 -183 67 -243 54 -52
117 -81 190 -87 35 -2 63 -3 63 0 0 9 -251 543 -260 551 -4 5 -20 -8 -34 -29z"/>
<path d="M275 2028 c-3 -29 -2 -71 3 -93 9 -35 10 -29 11 53 1 50 -1 92 -3 92
-3 0 -7 -24 -11 -52z"/>
<path d="M2660 1810 c-69 -26 -159 -59 -201 -74 -94 -33 -149 -76 -149 -116 0
-57 48 -57 175 0 78 36 143 50 231 50 77 0 82 1 87 23 6 23 -5 154 -13 160 -3
2 -61 -18 -130 -43z"/>
<path d="M2798 1547 c-35 -142 -122 -279 -237 -371 -97 -78 -188 -120 -323
-150 -28 -6 -28 -7 -28 -84 l0 -78 53 -17 c237 -74 500 -33 631 99 25 25 60
75 77 112 60 125 51 312 -21 438 -31 54 -101 124 -123 124 -7 0 -19 -31 -29
-73z"/>
</g>
</svg>
